name analog
datacolumns 19
datarows 23
range 0.3175 0.3285
endheader
time	ground_force_vx	ground_force_vy	ground_force_vz	ground_force_px	ground_force_py	ground_force_pz	l_ground_force_vx	l_ground_force_vy	l_ground_force_vz	l_ground_force_px	l_ground_force_py	l_ground_force_pz	ground_torque_x	ground_torque_y	ground_torque_z	l_ground_torque_x	l_ground_torque_y	l_ground_torque_z
0.3175	-0.0	-0.0	-0.0	-0.0	-0.0	-0.0	1.7985670566558838	-4.53526782989502	-754.7125244140625	-0.0	-0.0	-0.0	-0.0	-0.0	-0.0	203724.328125	11434.7568359375	2372.87646484375
0.318	-0.0	-0.0	-0.0	-0.0	-0.0	-0.0	1.8554641008377075	-4.709875106811523	-756.125	-0.0	-0.0	-0.0	-0.0	-0.0	-0.0	203562.296875	11195.0126953125	2356.15966796875
0.3185	-0.0	-0.0	-0.0	-0.0	-0.0	-0.0	2.4190938472747803	-4.996963024139404	-756.155029296875	-0.0	-0.0	-0.0	-0.0	-0.0	-0.0	203496.890625	11204.0361328125	2445.454833984375
0.319	-0.0	-0.0	-0.0	-0.0	-0.0	-0.0	2.5941290855407715	-4.96560001373291	-758.4310302734375	-0.0	-0.0	-0.0	-0.0	-0.0	-0.0	203663.109375	10773.50390625	2382.878173828125
0.3195	-0.0	-0.0	-0.0	-0.0	-0.0	-0.0	2.705528974533081	-5.424824237823486	-760.0758666992188	-0.0	-0.0	-0.0	-0.0	-0.0	-0.0	203933.53125	10659.13671875	2389.187744140625
0.32	-0.0	-0.0	-0.0	-0.0	-0.0	-0.0	2.750109434127808	-5.552683830261231	-762.243896484375	-0.0	-0.0	-0.0	-0.0	-0.0	-0.0	203941.3125	10715.66015625	2379.118896484375
0.3205	-0.0	-0.0	-0.0	-0.0	-0.0	-0.0	2.203701496124268	-5.196972846984863	-761.6104125976562	-0.0	-0.0	-0.0	-0.0	-0.0	-0.0	204547.484375	10587.314453125	2200.09033203125
0.321	-0.0	-0.0	-0.0	-0.0	-0.0	-0.0	2.0501277446746826	-5.17608642578125	-763.5667114257812	-0.0	-0.0	-0.0	-0.0	-0.0	-0.0	204549.953125	10681.4599609375	2020.706298828125
0.3215	-0.0	-0.0	-0.0	-0.0	-0.0	-0.0	2.124746322631836	-5.038566112518311	-765.340087890625	-0.0	-0.0	-0.0	-0.0	-0.0	-0.0	204694.53125	10680.61328125	1890.123291015625
0.322	-0.0	-0.0	-0.0	-0.0	-0.0	-0.0	2.0104262828826904	-5.230565071105957	-765.8722534179688	-0.0	-0.0	-0.0	-0.0	-0.0	-0.0	204524.4375	10482.1015625	1902.22509765625
0.3225	-0.0	-0.0	-0.0	-0.0	-0.0	-0.0	2.254833459854126	-5.660451412200928	-765.689453125	-0.0	-0.0	-0.0	-0.0	-0.0	-0.0	204377.59375	10508.8701171875	1962.868896484375
0.323	-0.0	-0.0	-0.0	-0.0	-0.0	-0.0	2.369187355041504	-6.079433441162109	-765.1649169921875	-0.0	-0.0	-0.0	-0.0	-0.0	-0.0	204416.671875	10299.615234375	1883.1595458984373
0.3235	-0.0	-0.0	-0.0	-0.0	-0.0	-0.0	2.4284682273864746	-6.93325138092041	-765.6314086914062	-0.0	-0.0	-0.0	-0.0	-0.0	-0.0	204235.96875	10184.0927734375	1912.052001953125
0.324	-0.0	-0.0	-0.0	-0.0	-0.0	-0.0	2.565331220626831	-7.345578670501709	-765.6827392578125	-0.0	-0.0	-0.0	-0.0	-0.0	-0.0	204014.109375	10185.7578125	1922.64501953125
0.3245	-0.0	-0.0	-0.0	-0.0	-0.0	-0.0	1.9734708070755005	-8.022324562072754	-765.1953125	-0.0	-0.0	-0.0	-0.0	-0.0	-0.0	203814.859375	10216.92578125	1635.90869140625
0.325	-0.0	-0.0	-0.0	-0.0	-0.0	-0.0	1.9689571857452397	-8.289325714111328	-765.0061645507812	-0.0	-0.0	-0.0	-0.0	-0.0	-0.0	203675.078125	10250.6376953125	1586.315185546875
0.3255	-0.0	-0.0	-0.0	-0.0	-0.0	-0.0	1.7634289264678955	-8.541247367858887	-764.7020874023438	-0.0	-0.0	-0.0	-0.0	-0.0	-0.0	203372.453125	9943.3125	1449.0797119140625
0.326	-0.0	-0.0	-0.0	-0.0	-0.0	-0.0	1.805170655250549	-9.026555061340332	-765.0308227539062	-0.0	-0.0	-0.0	-0.0	-0.0	-0.0	203234.78125	9911.5546875	1467.648681640625
0.3265	-0.0	-0.0	-0.0	-0.0	-0.0	-0.0	1.7220957279205322	-9.045242309570312	-765.7723999023438	-0.0	-0.0	-0.0	-0.0	-0.0	-0.0	203585.40625	9946.3203125	1393.13720703125
0.327	-0.0	-0.0	-0.0	-0.0	-0.0	-0.0	2.2737584114074707	-8.860749244689941	-766.7933349609375	-0.0	-0.0	-0.0	-0.0	-0.0	-0.0	203905.140625	9616.11328125	1382.2242431640625
0.3275	-0.0	-0.0	-0.0	-0.0	-0.0	-0.0	2.353342056274414	-8.751578330993652	-766.9215087890625	-0.0	-0.0	-0.0	-0.0	-0.0	-0.0	204084.546875	9351.90625	1377.9761962890625
0.328	-0.0	-0.0	-0.0	-0.0	-0.0	-0.0	3.160646438598633	-8.735986709594727	-769.2839965820312	-0.0	-0.0	-0.0	-0.0	-0.0	-0.0	204629.171875	9035.9794921875	1392.526611328125
0.3285	-0.0	-0.0	-0.0	-0.0	-0.0	-0.0	3.850917816162109	-9.128997802734377	-772.3233642578125	-0.0	-0.0	-0.0	-0.0	-0.0	-0.0	205299.21875	8854.576171875	1501.1295166015625
